<?xml version="1.0" encoding="UTF-8" standalone="no"?>
<svg
   xmlns:dc="http://purl.org/dc/elements/1.1/"
   xmlns:cc="http://creativecommons.org/ns#"
   xmlns:rdf="http://www.w3.org/1999/02/22-rdf-syntax-ns#"
   xmlns:svg="http://www.w3.org/2000/svg"
   xmlns="http://www.w3.org/2000/svg"
   xmlns:sodipodi="http://sodipodi.sourceforge.net/DTD/sodipodi-0.dtd"
   xmlns:inkscape="http://www.inkscape.org/namespaces/inkscape"
   width="340"
   height="340"
   version="1.1"
   id="svg9"
   sodipodi:docname="bikeicon.svg"
   inkscape:version="1.0.2 (e86c870879, 2021-01-15)"
   inkscape:export-filename="/home/adrian/downloads/bikeicon.png"
   inkscape:export-xdpi="28.235294"
   inkscape:export-ydpi="28.235294">
  <defs
     id="defs13" />
  <sodipodi:namedview
     pagecolor="#ffffff"
     bordercolor="#666666"
     borderopacity="1"
     objecttolerance="10"
     gridtolerance="10"
     guidetolerance="10"
     inkscape:pageopacity="0"
     inkscape:pageshadow="2"
     inkscape:window-width="1854"
     inkscape:window-height="1009"
     id="namedview11"
     showgrid="false"
     inkscape:zoom="0.51978551"
     inkscape:cx="27.401096"
     inkscape:cy="-201.81353"
     inkscape:window-x="66"
     inkscape:window-y="34"
     inkscape:window-maximized="1"
     inkscape:current-layer="svg9" />
  <g
     transform="translate(2.295,29.007)"
     id="imagebot_10">
    <path
       label="Camada 1"
       fill="#000000"
       transform="matrix(1.6571,-0.11142,0.11142,1.6571,-507.444,-28.301)"
       d="m 409.38,76.812 c -0.17314,0.0075 -0.64049,0.04131 -0.8125,0.0625 -0.17201,0.02119 -0.64272,0.09023 -0.8125,0.125 -0.16978,0.03477 -0.64601,0.13937 -0.8125,0.1875 -0.16649,0.04813 -0.6191,0.22006 -0.78125,0.28125 -0.16215,0.06119 -0.62447,0.23864 -0.78125,0.3125 -0.15678,0.07386 -0.56832,0.28894 -0.71875,0.375 -0.15043,0.08606 -0.57563,0.33977 -0.71875,0.4375 -0.14312,0.09773 -0.52133,0.39123 -0.65625,0.5 l -39.688,32.125 c -0.19177,0.15435 -0.70182,0.63754 -0.875,0.8125 -0.17318,0.17496 -0.62887,0.68166 -0.78125,0.875 -0.15238,0.19334 -0.55785,0.75949 -0.6875,0.96875 -0.12965,0.20926 -0.45723,0.80872 -0.5625,1.0312 -0.10527,0.22253 -0.35795,0.86079 -0.4375,1.0938 -0.0795,0.23296 -0.25968,0.88456 -0.3125,1.125 -0.0528,0.24044 -0.16208,0.9114 -0.1875,1.1562 -0.0254,0.24485 -0.0648,0.94134 -0.0625,1.1875 0.002,0.24616 0.0325,0.94317 0.0625,1.1875 0.03,0.24433 0.16144,0.91685 0.21875,1.1562 0.0573,0.2394 0.25985,0.89357 0.34375,1.125 0.0839,0.23143 0.35933,0.87323 0.46875,1.0938 0.10942,0.22052 0.4602,0.7932 0.59375,1 0.13355,0.2068 0.53152,0.7783 0.6875,0.96875 0.15598,0.19045 0.60483,0.70332 0.78125,0.875 0.17642,0.17168 0.71162,0.59927 0.90625,0.75 l 25.812,20.094 -5,35.688 v 0.0625 c -0.0399,0.24416 -0.10961,0.79362 -0.125,1 -0.0163,0.2191 -0.037,0.81162 -0.0313,1.0312 0.006,0.21963 0.066,0.84456 0.0937,1.0625 0.0278,0.21794 0.13799,0.8172 0.1875,1.0312 0.0495,0.21405 0.21049,0.792 0.28125,1 0.0708,0.208 0.31496,0.80016 0.40625,1 0.0913,0.19984 0.35786,0.71659 0.46875,0.90625 0.11089,0.18966 0.43312,0.72868 0.5625,0.90625 0.12938,0.17757 0.54094,0.64882 0.6875,0.8125 0.14656,0.16368 0.5565,0.60186 0.71875,0.75 0.16225,0.14814 0.63619,0.52515 0.8125,0.65625 0.17631,0.1311 0.68642,0.48102 0.875,0.59375 0.18858,0.11273 0.73855,0.40678 0.9375,0.5 0.19895,0.0932 0.76145,0.30223 0.96875,0.375 0.2073,0.0728 0.78644,0.26091 1,0.3125 0.21356,0.0516 0.84484,0.15762 1.0625,0.1875 0.21766,0.0299 0.81169,0.0859 1.0312,0.0937 0.21956,0.008 0.84326,-0.017 1.0625,-0.0313 0.21924,-0.0142 0.81454,-0.0576 1.0312,-0.0937 0.21671,-0.0362 0.81927,-0.19226 1.0312,-0.25 0.21198,-0.0577 0.79489,-0.23377 1,-0.3125 0.20511,-0.0787 0.77258,-0.33857 0.96875,-0.4375 0.19617,-0.0989 0.72101,-0.38187 0.90625,-0.5 0.18524,-0.11813 0.70255,-0.48887 0.875,-0.625 0.17245,-0.13613 0.62335,-0.53474 0.78125,-0.6875 0.1579,-0.15276 0.57698,-0.6134 0.71875,-0.78125 0.14177,-0.16785 0.5008,-0.63127 0.625,-0.8125 0.1242,-0.18123 0.45713,-0.71346 0.5625,-0.90625 0.10537,-0.19279 0.35202,-0.73511 0.4375,-0.9375 0.0855,-0.20239 0.31028,-0.79005 0.375,-1 0.0647,-0.20995 0.20669,-0.81586 0.25,-1.0312 0.0395,-0.19625 0.12635,-0.6811 0.15625,-0.9375 0.003,-0.025 -0.002,-0.0743 0,-0.0937 l 5.8125,-41.625 c 0.0394,-0.28271 0.0915,-1.0896 0.0937,-1.375 0.002,-0.28544 -0.0275,-1.0917 -0.0625,-1.375 -0.035,-0.28329 -0.20958,-1.0674 -0.28125,-1.3438 -0.0717,-0.2763 -0.29915,-1.0167 -0.40625,-1.2812 -0.1071,-0.26459 -0.45306,-1.0016 -0.59375,-1.25 -0.14069,-0.24836 -0.57811,-0.89711 -0.75,-1.125 -0.17189,-0.22789 -0.70611,-0.82773 -0.90625,-1.0312 -0.20014,-0.20352 -0.80627,-0.73057 -1.0312,-0.90625 l -20.188,-15.688 22.406,-18.156 21.656,20.25 c 0.13247,0.12344 0.51401,0.45047 0.65625,0.5625 0.14224,0.11203 0.56771,0.40014 0.71875,0.5 0.15104,0.0999 0.5912,0.3505 0.75,0.4375 0.1588,0.087 0.61579,0.33271 0.78125,0.40625 0.16546,0.0735 0.61026,0.25293 0.78125,0.3125 0.17099,0.0596 0.66841,0.2048 0.84375,0.25 0.17534,0.0452 0.66527,0.15699 0.84375,0.1875 0.17848,0.0305 0.69461,0.0781 0.875,0.0937 l 21.062,1.8438 h 0.0937 c 0.25689,0.0283 0.7678,0.0884 0.96875,0.0937 0.22023,0.006 0.81155,-0.015 1.0312,-0.0313 0.2197,-0.0163 0.84555,-0.0867 1.0625,-0.125 0.21695,-0.0383 0.81927,-0.19002 1.0312,-0.25 0.21198,-0.06 0.79513,-0.26273 1,-0.34375 0.20487,-0.081 0.77308,-0.33626 0.96875,-0.4375 0.19567,-0.10124 0.72177,-0.41082 0.90625,-0.53125 0.18448,-0.12043 0.67234,-0.48661 0.84375,-0.625 0.17141,-0.13839 0.62464,-0.53255 0.78125,-0.6875 0.15661,-0.15495 0.57854,-0.61132 0.71875,-0.78125 0.14021,-0.16993 0.50261,-0.66056 0.625,-0.84375 0.12239,-0.18319 0.42793,-0.71167 0.53125,-0.90625 0.10332,-0.19458 0.38555,-0.76476 0.46875,-0.96875 0.0832,-0.20399 0.28151,-0.75742 0.34375,-0.96875 0.0622,-0.21133 0.20936,-0.81472 0.25,-1.0312 0.0406,-0.21653 0.10637,-0.84298 0.125,-1.0625 0.0186,-0.21952 0.0348,-0.81097 0.0313,-1.0312 -0.004,-0.22028 -0.0368,-0.8437 -0.0625,-1.0625 -0.0257,-0.2188 -0.10862,-0.81615 -0.15625,-1.0312 -0.0476,-0.2151 -0.2122,-0.82204 -0.28125,-1.0312 -0.0691,-0.20921 -0.31649,-0.76756 -0.40625,-0.96875 -0.0898,-0.20119 -0.35918,-0.77762 -0.46875,-0.96875 -0.10957,-0.19113 -0.43425,-0.69587 -0.5625,-0.875 -0.12825,-0.17913 -0.51061,-0.6472 -0.65625,-0.8125 -0.14564,-0.1653 -0.58846,-0.6002 -0.75,-0.75 -0.16154,-0.1498 -0.63669,-0.55473 -0.8125,-0.6875 -0.17581,-0.13277 -0.68672,-0.47936 -0.875,-0.59375 -0.18828,-0.11439 -0.70741,-0.40515 -0.90625,-0.5 -0.19884,-0.0948 -0.76137,-0.3319 -0.96875,-0.40625 -0.20738,-0.0743 -0.81744,-0.25941 -1.0312,-0.3125 -0.21381,-0.0531 -0.81318,-0.15621 -1.0312,-0.1875 -0.20497,-0.0294 -0.72024,-0.08 -0.96875,-0.0937 h -0.0625 l -17.406,-1.5312 -25.719,-24 c -0.15877,-0.14837 -0.63977,-0.5244 -0.8125,-0.65625 -0.17273,-0.13185 -0.65877,-0.47973 -0.84375,-0.59375 -0.18498,-0.11402 -0.71085,-0.40493 -0.90625,-0.5 -0.1954,-0.09507 -0.76486,-0.33108 -0.96875,-0.40625 -0.20389,-0.07517 -0.78965,-0.25797 -1,-0.3125 -0.21035,-0.05453 -0.78527,-0.1854 -1,-0.21875 -0.21473,-0.03335 -0.84552,-0.08192 -1.0625,-0.09375 -0.21698,-0.01183 -0.81417,-0.0098 -1.0312,0 z"
       id="imagebot_7" />
    <path
       transform="translate(-235.634,-40.398)"
       label="Camada 1"
       fill="#000000"
       d="m 486,70.984 c 0,16.202 -13.134,29.336 -29.336,29.336 -16.202,0 -29.336,-13.134 -29.336,-29.336 0,-16.202 13.134,-29.336 29.336,-29.336 16.202,0 29.336,13.134 29.336,29.336 z m 14.729,112.02 c -38.073,0 -69.065,30.992 -69.065,69.065 0,38.073 30.992,69.065 69.065,69.065 38.073,0 69.065,-30.992 69.065,-69.065 0,-38.073 -30.992,-69.065 -69.065,-69.065 z m 0,13.717 c 30.665,0 55.429,24.683 55.429,55.348 0,30.665 -24.763,55.348 -55.429,55.348 -30.665,0 -55.348,-24.683 -55.348,-55.348 0,-30.665 24.683,-55.348 55.348,-55.348 z m -194.78,-13.72 c -38.073,0 -69.065,30.992 -69.065,69.065 0,38.073 30.992,69.065 69.065,69.065 38.073,0 69.065,-30.992 69.065,-69.065 0,-38.073 -30.992,-69.065 -69.065,-69.065 z m 0,13.717 c 30.665,0 55.429,24.683 55.429,55.348 0,30.665 -24.763,55.348 -55.429,55.348 -30.665,0 -55.348,-24.683 -55.348,-55.348 0,-30.665 24.683,-55.348 55.348,-55.348 z"
       id="imagebot_6" />
  </g>
  <metadata
     id="imagebot_2">image/svg+xmlOpenclipart<rdf:RDF>
  <cc:Work
     rdf:about="">
    <dc:format>image/svg+xml</dc:format>
    <dc:type
       rdf:resource="http://purl.org/dc/dcmitype/StillImage" />
    <dc:title></dc:title>
  </cc:Work>
</rdf:RDF>
</metadata>
</svg>
